{"title":"Robin Thicke Ft. 2 Chainz &amp; Kendrick Lamar - Give It 2 U [Ex","uid":8864157,"size":107919730,"categoryP":"video","categoryS":"music_videos","magnet":"?xt=urn:btih:6fa64ded8c8423e040318bbd09ece0f3c0059a51&amp;dn=Robin+Thicke+Ft.+2+Chainz+%26amp%3B+Kendrick+Lamar+-+Give+It+2+U+%5BEx&amp;tr=udp%3A%2F%2Ftracker.openbittorrent.com%3A80&amp;tr=udp%3A%2F%2Fopen.demonii.com%3A1337&amp;tr=udp%3A%2F%2Ftracker.coppersurfer.tk%3A6969&amp;tr=udp%3A%2F%2Fexodus.desync.com%3A6969","seeders":1,"leechers":0,"uploader":"Sbyky","files":-1,"time":1377855767,"description":"[IMG]http://yuq.me/users/18/139/8xMK0YEBks.png[/IMG]\n\nGeneral\nComplete name                            : Robin Thicke Ft. 2 Chainz &amp; Kendrick Lamar - Give It 2 U [Explicit] 720p [Sbyky].mp4\nFormat                                   : MPEG-4\nFormat profile                           : Base Media / Version 2\nCodec ID                                 : mp42\nFile size                                : 103 MiB\nDuration                                 : 4mn 30s\nOverall bit rate mode                    : Variable\nOverall bit rate                         : 3 195 Kbps\nEncoded date                             : UTC 2013-08-21 17:03:16\nTagged date                              : UTC 2013-08-21 17:03:16\n\nVideo\nID                                       : 1\nFormat                                   : AVC\nFormat/Info                              : Advanced Video Codec\nFormat profile                           : &lt;a class=&quot;__cf_email__&quot; href=&quot;/cdn-cgi/l/email-protection&quot; data-cfemail=&quot;6a22030d022a2659445b&quot;&gt;[email&amp;#160;protected]&lt;/a&gt;&lt;script cf-hash='f9e31' type=&quot;text/javascript&quot;&gt;\n/* &lt;![CDATA[ */!function(){try{var t=&quot;currentScript&quot;in document?document.currentScript:function(){for(var t=document.getElementsByTagName(&quot;script&quot;),e=t.length;e--;)if(t[e].getAttribute(&quot;cf-hash&quot;))return t[e]}();if(t&amp;&amp;t.previousSibling){var e,r,n,i,c=t.previousSibling,a=c.getAttribute(&quot;data-cfemail&quot;);if(a){for(e=&quot;&quot;,r=parseInt(a.substr(0,2),16),n=2;a.length-n;n+=2)i=parseInt(a.substr(n,2),16)^r,e+=String.fromCharCode(i);e=document.createTextNode(e),c.parentNode.replaceChild(e,c)}}}catch(u){}}();/* ]]&gt; */&lt;/script&gt;\nFormat settings, CABAC                   : Yes\nFormat settings, ReFrames                : 1 frame\nCodec ID                                 : avc1\nCodec ID/Info                            : Advanced Video Coding\nDuration                                 : 4mn 30s\nBit rate                                 : 3 000 Kbps\nMaximum bit rate                         : 6 795 Kbps\nWidth                                    : 1 280 pixels\nHeight                                   : 720 pixels\nDisplay aspect ratio                     : 16:9\nFrame rate mode                          : Constant\nFrame rate                               : 23.976 fps\nColor space                              : YUV\nChroma subsampling                       : 4:2:0\nBit depth                                : 8 bits\nScan type                                : Progressive\nBits/(Pixel*Frame)                       : 0.136\nStream size                              : 96.7 MiB (94%)\nTagged date                              : UTC 2013-08-21 17:03:22\n\nAudio\nID                                       : 2\nFormat                                   : AAC\nFormat/Info                              : Advanced Audio Codec\nFormat profile                           : LC\nCodec ID                                 : 40\nDuration                                 : 4mn 30s\nBit rate mode                            : Variable\nBit rate                                 : 192 Kbps\nMaximum bit rate                         : 202 Kbps\nChannel(s)                               : 2 channels\nChannel positions                        : Front: L R\nSampling rate                            : 44.1 KHz\nCompression mode                         : Lossy\nStream size                              : 6.19 MiB (6%)\nTitle                                    : IsoMedia File Produced by Google, 5-11-2011\nEncoded date                             : UTC 2013-08-21 17:03:20\nTagged date                              : UTC 2013-08-21 17:03:22\n\nShared By Sbyky\n[IMG]http://yuq.me/users/18/139/0aq32UMZvX.gif[/IMG]\n[IMG]http://yuq.me/users/18/139/bQg62viaEG.gif[/IMG]","torrent":{"xt":"urn:btih:6fa64ded8c8423e040318bbd09ece0f3c0059a51","amp;dn":"Robin+Thicke+Ft.+2+Chainz+%26amp%3B+Kendrick+Lamar+-+Give+It+2+U+%5BEx","amp;tr":["udp%3A%2F%2Ftracker.openbittorrent.com%3A80","udp%3A%2F%2Fopen.demonii.com%3A1337","udp%3A%2F%2Ftracker.coppersurfer.tk%3A6969","udp%3A%2F%2Fexodus.desync.com%3A6969"],"infoHash":"6fa64ded8c8423e040318bbd09ece0f3c0059a51","infoHashBuffer":{"type":"Buffer","data":[111,166,77,237,140,132,35,224,64,49,139,189,9,236,224,243,192,5,154,81]},"announce":[],"urlList":[]}}